<svg xmlns="http://www.w3.org/2000/svg" viewBox="0 0 935 149.62"><defs><style>.cls-1{fill:#0d7377;}.cls-2{fill:#323232;}</style></defs><title>logo_set1</title><g id="レイヤー_2" data-name="レイヤー 2"><g id="レイヤー_1-2" data-name="レイヤー 1"><path class="cls-1" d="M138,21.75h66V35.3H138Zm40.21,95.09h-14.4v-70h14.4Z"/><path class="cls-2" d="M227,75.07c2.71,17.67,17,30.08,34.5,30.08,9.4,0,16.39-3,25.65-10.84v17.25a49.61,49.61,0,0,1-25.8,7.13c-25.23,0-45.76-18.39-48.89-43.62Zm-14.4-11.55C216,38.15,236.8,19.9,262.32,19.9c9.41,0,16.25,2,24.8,7v17c-8.83-7.41-16.25-10.41-25.8-10.41-17.25,0-31.07,12-34.21,30.08Z"/><path class="cls-2" d="M319.48,116.84h-14.4V21.75h14.4Zm56-95.09L341.15,64.8l34.64,52H358.54L330.88,74.5V56.82L358.4,21.75Z"/><path class="cls-2" d="M399.73,116.84H385.91v-60h13.82Zm11-61a25.51,25.51,0,0,1,5.42-.57c7.55,0,14.25,3.14,17.68,8.13,2.7,4,3.7,8.7,3.7,16.68v36.78H423.68V83.34c0-6.28-.42-9.13-1.85-11.41-1.57-2.56-5-4.27-8.69-4.27a16.81,16.81,0,0,0-2.43.14Z"/><path class="cls-2" d="M452.76,81.48c3.28-16.11,15.4-26.23,31.5-26.23s28.37,10.27,31.51,26.23H501.51c-2.28-9.12-8.26-13.82-17.25-13.82S469.3,72.5,467,81.48Zm63,11c-3.28,16.11-15.54,26.23-31.51,26.23S456,108.57,452.76,92.46H467c2.28,9.12,8.12,13.83,17.24,13.83s15-4.85,17.25-13.83Z"/><path class="cls-2" d="M560.81,105.86l-6.7,15.54L522.75,56.82h15.54Zm17-38.63L566.66,92.46l-6.85-14.83,11.12-26.22Zm5.84,13.68,11.12,26-7.13,14.54-10.69-25Zm20-24.09H619L601,93.74l-7-16.11Z"/><path class="cls-2" d="M642.06,116.84H628.24V12.92h13.82Z"/><path class="cls-2" d="M680.27,68.8c-6.13,3-9.41,9.26-9.41,18.1,0,11.83,6.27,19.39,16,19.39,6,0,9.84-2.28,14.26-8.7l11.54,7c-6.55,9.55-14.82,14.11-25.8,14.11-18.24,0-30.08-12.4-30.08-31.79,0-12.4,4.85-22.38,13.55-27.65,3-1.86,5.41-2.71,10-3.57Zm1.85,10.12h18c-1.28-5.28-4.13-8.56-8.84-10.27v-13c15.25,3,23.09,13.54,23.09,31.22,0,.43,0,1.85-.14,3.28H682.12Z"/><path class="cls-2" d="M762.52,117.55a23.91,23.91,0,0,1-7.56,1.14c-16.39,0-28.51-13.54-28.51-31.93,0-18.11,12.12-31.51,28.37-31.51a26,26,0,0,1,7.7,1.14V68.51a17.72,17.72,0,0,0-5.28-.85c-9.69,0-16.68,8.12-16.68,19.38s7,19.25,16.83,19.25a14.62,14.62,0,0,0,5.13-.86Zm24.8-.71H773.49V12.92h13.83Z"/><path class="cls-2" d="M838.07,117.41a24.06,24.06,0,0,1-8,1.28c-16.25,0-28.08-13.26-28.08-31.5,0-18.54,11.83-31.94,28.23-31.94a25.66,25.66,0,0,1,7.84,1.14V68.51a15.07,15.07,0,0,0-5.28-.85c-10.12,0-16.68,7.69-16.68,19.81,0,11.26,6.85,18.82,16.83,18.82a16.19,16.19,0,0,0,5.13-.86Zm24.8-2c0,11.69-1.14,17-5.13,22.81-5,7.13-13.83,11.4-24,11.4-16.39,0-27.51-9.55-29.08-25.23h13.54c1.29,7.84,7.42,12.83,15.54,12.83,5.28,0,10.12-2.28,12.55-6,1.85-2.85,2.7-6.7,2.7-12.68V56.82h13.83Z"/><path class="cls-2" d="M900.93,68.8c-6.13,3-9.41,9.26-9.41,18.1,0,11.83,6.27,19.39,16,19.39,6,0,9.83-2.28,14.25-8.7l11.55,7c-6.56,9.55-14.83,14.11-25.8,14.11-18.25,0-30.08-12.4-30.08-31.79,0-12.4,4.85-22.38,13.54-27.65,3-1.86,5.42-2.71,10-3.57Zm1.85,10.12h18c-1.29-5.28-4.14-8.56-8.84-10.27v-13C927.16,58.68,935,69.22,935,86.9c0,.43,0,1.85-.14,3.28H902.78Z"/><polygon class="cls-1" points="85 14.45 3.64 36.25 5.99 22.11 88.5 0 85 14.45"/><polygon class="cls-1" points="60.77 111.58 47.96 56.09 59.34 47.37 72.15 102.86 60.77 111.58"/><polygon class="cls-2" points="31.54 117.45 16.37 60.84 17.28 52.25 80.75 35.24 84.25 20.79 10.91 40.44 2.88 42.59 0 59.33 18.12 126.94 28.98 140 34.71 138.47 37.01 137.85 101.18 120.66 104.68 106.21 36.63 124.44 31.54 117.45"/></g></g></svg>