<svg xmlns="http://www.w3.org/2000/svg" viewBox="0 0 48.77 10.68"><defs><style>.cls-1{fill:#0d7377;}</style></defs><title>typo_menu</title><g id="レイヤー_2" data-name="レイヤー 2"><g id="レイヤー_1-2" data-name="レイヤー 1"><path class="cls-1" d="M2.33,10.37H0V.26H2.33ZM4.18,0c.24,0,.4,0,.55,0A3.28,3.28,0,0,1,7.58,1.58a5.62,5.62,0,0,1,.48,2.55v6.24H5.74V4.75c0-1.94-.39-2.59-1.56-2.66ZM9,.24A4.32,4.32,0,0,1,10.42,0a3.29,3.29,0,0,1,2.95,1.58,5.85,5.85,0,0,1,.48,2.55v6.24H11.52V4.75c0-1.94-.38-2.59-1.56-2.66Z"/><path class="cls-1" d="M20.26,2.28a3.1,3.1,0,0,0-1.59,3.05c0,2,1.06,3.26,2.69,3.26a2.66,2.66,0,0,0,2.4-1.46L25.7,8.31a5,5,0,0,1-4.34,2.37c-3.07,0-5.06-2.09-5.06-5.35A5.19,5.19,0,0,1,18.58.67a4.41,4.41,0,0,1,1.68-.6ZM20.57,4h3A2.21,2.21,0,0,0,22.1,2.26V.07C24.67.58,26,2.35,26,5.33c0,.07,0,.31,0,.55h-5.4Z"/><path class="cls-1" d="M30.84,10.37H28.51V.26h2.33ZM32.69.1A3.73,3.73,0,0,1,33.6,0a3.6,3.6,0,0,1,3,1.37,4.72,4.72,0,0,1,.62,2.81v6.19H34.87V4.73a3.51,3.51,0,0,0-.31-1.92,1.72,1.72,0,0,0-1.46-.72,3.34,3.34,0,0,0-.41,0Z"/><path class="cls-1" d="M43.54,10.58a3.72,3.72,0,0,1-1.8-.74C40.58,9,40.15,8,40.15,6.12V.26h2.33V6.07c0,1.32.26,1.9,1.06,2.31Zm1.84-2.2c.8-.41,1.06-1,1.06-2.31V.26h2.33V6.12c0,2-.53,3.12-1.87,3.91a4.05,4.05,0,0,1-1.52.58Z"/></g></g></svg>