<svg xmlns="http://www.w3.org/2000/svg" viewBox="0 0 935 149.62"><defs><style>.cls-1{fill:#0d7377}.cls-2{fill:#323232}</style></defs><title>logo_set1</title><g id="レイヤー_2" data-name="レイヤー 2"><g id="レイヤー_1-2" data-name="レイヤー 1"><path class="cls-1" d="M138 21.75h66V35.3h-66zm40.21 95.09h-14.4v-70h14.4z"/><path class="cls-2" d="M227 75.07c2.71 17.67 17 30.08 34.5 30.08 9.4 0 16.39-3 25.65-10.84v17.25a49.61 49.61 0 0 1-25.8 7.13c-25.23 0-45.76-18.39-48.89-43.62zm-14.4-11.55c3.4-25.37 24.2-43.62 49.72-43.62 9.41 0 16.25 2 24.8 7v17c-8.83-7.41-16.25-10.41-25.8-10.41-17.25 0-31.07 12-34.21 30.08zm106.88 53.32h-14.4V21.75h14.4zm56-95.09L341.15 64.8l34.64 52h-17.25l-27.66-42.3V56.82l27.52-35.07zm24.25 95.09h-13.82v-60h13.82zm11-61a25.51 25.51 0 0 1 5.42-.57c7.55 0 14.25 3.14 17.68 8.13 2.7 4 3.7 8.7 3.7 16.68v36.78h-13.85V83.34c0-6.28-.42-9.13-1.85-11.41-1.57-2.56-5-4.27-8.69-4.27a16.81 16.81 0 0 0-2.43.14zm42.03 25.64c3.28-16.11 15.4-26.23 31.5-26.23s28.37 10.27 31.51 26.23h-14.26c-2.28-9.12-8.26-13.82-17.25-13.82S469.3 72.5 467 81.48zm63 11c-3.28 16.11-15.54 26.23-31.51 26.23S456 108.57 452.76 92.46H467c2.28 9.12 8.12 13.83 17.24 13.83s15-4.85 17.25-13.83zm45.05 13.38l-6.7 15.54-31.36-64.58h15.54zm17-38.63l-11.15 25.23-6.85-14.83 11.12-26.22zm5.84 13.68l11.12 26-7.13 14.54-10.69-25zm20-24.09H619l-18 36.92-7-16.11zm38.41 60.02h-13.82V12.92h13.82zm38.21-48.04c-6.13 3-9.41 9.26-9.41 18.1 0 11.83 6.27 19.39 16 19.39 6 0 9.84-2.28 14.26-8.7l11.54 7c-6.55 9.55-14.82 14.11-25.8 14.11-18.24 0-30.08-12.4-30.08-31.79 0-12.4 4.85-22.38 13.55-27.65 3-1.86 5.41-2.71 10-3.57zm1.85 10.12h18c-1.28-5.28-4.13-8.56-8.84-10.27v-13c15.25 3 23.09 13.54 23.09 31.22 0 .43 0 1.85-.14 3.28h-32.11zm80.4 38.63a23.91 23.91 0 0 1-7.56 1.14c-16.39 0-28.51-13.54-28.51-31.93 0-18.11 12.12-31.51 28.37-31.51a26 26 0 0 1 7.7 1.14v12.12a17.72 17.72 0 0 0-5.28-.85c-9.69 0-16.68 8.12-16.68 19.38s7 19.25 16.83 19.25a14.62 14.62 0 0 0 5.13-.86zm24.8-.71h-13.83V12.92h13.83zm50.75.57a24.06 24.06 0 0 1-8 1.28c-16.25 0-28.08-13.26-28.08-31.5 0-18.54 11.83-31.94 28.23-31.94a25.66 25.66 0 0 1 7.84 1.14v12.12a15.07 15.07 0 0 0-5.28-.85c-10.12 0-16.68 7.69-16.68 19.81 0 11.26 6.85 18.82 16.83 18.82a16.19 16.19 0 0 0 5.13-.86zm24.8-2c0 11.69-1.14 17-5.13 22.81-5 7.13-13.83 11.4-24 11.4-16.39 0-27.51-9.55-29.08-25.23h13.54c1.29 7.84 7.42 12.83 15.54 12.83 5.28 0 10.12-2.28 12.55-6 1.85-2.85 2.7-6.7 2.7-12.68V56.82h13.83zm38.06-46.61c-6.13 3-9.41 9.26-9.41 18.1 0 11.83 6.27 19.39 16 19.39 6 0 9.83-2.28 14.25-8.7l11.55 7c-6.56 9.55-14.83 14.11-25.8 14.11-18.25 0-30.08-12.4-30.08-31.79 0-12.4 4.85-22.38 13.54-27.65 3-1.86 5.42-2.71 10-3.57zm1.85 10.12h18c-1.29-5.28-4.14-8.56-8.84-10.27v-13C927.16 58.68 935 69.22 935 86.9c0 .43 0 1.85-.14 3.28h-32.08z"/><path class="cls-1" d="M85 14.45L3.64 36.25l2.35-14.14L88.5 0 85 14.45zm-24.23 97.13L47.96 56.09l11.38-8.72 12.81 55.49-11.38 8.72z"/><path class="cls-2" d="M31.54 117.45L16.37 60.84l.91-8.59 63.47-17.01 3.5-14.45-73.34 19.65-8.03 2.15L0 59.33l18.12 67.61L28.98 140l5.73-1.53 2.3-.62 64.17-17.19 3.5-14.45-68.05 18.23-5.09-6.99z"/></g></g></svg>