<svg xmlns="http://www.w3.org/2000/svg" viewBox="0 0 442.79 76.72"><defs><style>.cls-1{fill:#192424}</style></defs><title>logo_typo1</title><g id="レイヤー_2" data-name="レイヤー 2"><path class="cls-1" d="M0 5h32.56v7.6H0zm20.32 53.32h-8.08V19h8.08zm25.12-23.44A19.42 19.42 0 0 0 64.8 51.76c5.28 0 9.2-1.68 14.4-6.08v9.68a27.87 27.87 0 0 1-14.48 4 27.48 27.48 0 0 1-27.44-24.48zm-8.08-6.48A27.88 27.88 0 0 1 65.28 3.92 25.2 25.2 0 0 1 79.2 7.84v9.52c-5-4.16-9.12-5.84-14.48-5.84-9.68 0-17.44 6.72-19.2 16.88zm60 29.92h-8.08V5h8.08zM128.8 5l-19.28 24.12L129 58.32h-9.68l-15.56-23.76v-9.92L119.2 5zm13.6 53.32h-7.76V24.64h7.76zm6.16-34.24a14 14 0 0 1 3-.32c4.24 0 8 1.76 9.92 4.56 1.52 2.24 2.08 4.88 2.08 9.36v20.64h-7.76v-18.8c0-3.52-.24-5.12-1-6.4a5.74 5.74 0 0 0-4.88-2.4 9.25 9.25 0 0 0-1.36.08zm23.6 14.4c1.84-9 8.64-14.72 17.68-14.72s15.92 5.76 17.68 14.72h-8c-1.28-5.12-4.64-7.76-9.68-7.76s-8.4 2.72-9.68 7.76zm35.36 6.16c-1.84 9-8.72 14.72-17.68 14.72S174 53.68 172.16 44.64h8c1.28 5.12 4.56 7.76 9.68 7.76s8.4-2.72 9.68-7.76zm25.28 7.52l-3.8 8.72-17.6-36.24h8.72zm9.52-21.68l-6.24 14.16-3.84-8.32 6.24-14.72zm3.28 7.68l6.24 14.56-4 8.16-6-14zm11.2-13.52h8.64l-10.08 20.72-3.92-9zm21.6 33.68h-7.76V0h7.76zm21.43-26.96c-3.43 1.68-5.28 5.2-5.28 10.16 0 6.64 3.52 10.88 9 10.88 3.36 0 5.52-1.28 8-4.88l6.45 3.92c-3.68 5.36-8.32 7.92-14.48 7.92-10.25 0-16.89-7-16.89-17.84 0-7 2.72-12.56 7.6-15.52a14.38 14.38 0 0 1 5.6-2zm1.05 5.64H311a7.49 7.49 0 0 0-5-5.76V24c8.56 1.68 13 7.6 13 17.52 0 .24 0 1-.08 1.84h-18zM346 58.72a13.38 13.38 0 0 1-4.25.64c-9.2 0-16-7.6-16-17.92 0-10.16 6.8-17.68 15.92-17.68a14.52 14.52 0 0 1 4.33.64v6.8a9.94 9.94 0 0 0-3-.48c-5.45 0-9.37 4.56-9.37 10.88s3.92 10.8 9.45 10.8a8.3 8.3 0 0 0 2.88-.48zm13.92-.4h-7.76V0h7.76zm28.48.32a13.39 13.39 0 0 1-4.48.72c-9.13 0-15.77-7.44-15.77-17.68 0-10.4 6.64-17.92 15.85-17.92a14.34 14.34 0 0 1 4.4.64v6.8a8.43 8.43 0 0 0-3-.48c-5.69 0-9.37 4.32-9.37 11.12 0 6.32 3.85 10.56 9.45 10.56a9.11 9.11 0 0 0 2.88-.48zm13.92-1.12c0 6.56-.64 9.52-2.88 12.8-2.8 4-7.76 6.4-13.44 6.4-9.21 0-15.45-5.36-16.33-14.16h7.6A9 9 0 0 0 393 66.4c1-1.6 1.52-3.76 1.52-7.12V24.64h7.76zm21.35-26.16c-3.44 1.68-5.28 5.2-5.28 10.16 0 6.64 3.52 10.88 9 10.88 3.36 0 5.52-1.28 8-4.88l6.48 3.92c-3.68 5.36-8.32 7.92-14.48 7.92-10.24 0-16.88-7-16.88-17.84 0-7 2.72-12.56 7.6-15.52a14.38 14.38 0 0 1 5.6-2zm1 5.68h10.08a7.49 7.49 0 0 0-5-5.76V24c8.56 1.68 13 7.6 13 17.52 0 .24 0 1-.08 1.84h-18z" id="レイヤー_1-2" data-name="レイヤー 1"/></g></svg>